<?xml version="1.0" encoding="UTF-8" standalone="no"?>
<!-- Created with Inkscape (http://www.inkscape.org/) -->
<svg xmlns:dc="http://purl.org/dc/elements/1.1/" xmlns:cc="http://creativecommons.org/ns#" xmlns:rdf="http://www.w3.org/1999/02/22-rdf-syntax-ns#" xmlns:svg="http://www.w3.org/2000/svg" xmlns="http://www.w3.org/2000/svg" xmlns:xlink="http://www.w3.org/1999/xlink" xmlns:sodipodi="http://sodipodi.sourceforge.net/DTD/sodipodi-0.dtd" xmlns:inkscape="http://www.inkscape.org/namespaces/inkscape" width="168.50922" height="172.66716" id="svg12929" sodipodi:version="0.32" inkscape:version="0.46" sodipodi:docbase="D:\" sodipodi:docname="punaise.svg" inkscape:output_extension="org.inkscape.output.svg.inkscape" version="1.0">
  <defs id="defs3">
    <linearGradient id="linearGradient4795">
      <stop style="stop-color:#34434f;stop-opacity:1;" offset="0" id="stop4797"/>
      <stop id="stop4803" offset="1" style="stop-color:#43acff;stop-opacity:1"/>
    </linearGradient>
    <linearGradient id="linearGradient4605">
      <stop style="stop-color:#67a6c0;stop-opacity:1;" offset="0" id="stop4607"/>
      <stop style="stop-color:#287386;stop-opacity:1;" offset="1" id="stop4609"/>
    </linearGradient>
    <linearGradient id="linearGradient4597">
      <stop style="stop-color:#1b507b;stop-opacity:1;" offset="0" id="stop4599"/>
      <stop style="stop-color:#18232b;stop-opacity:1;" offset="1" id="stop4601"/>
    </linearGradient>
    <inkscape:perspective sodipodi:type="inkscape:persp3d" inkscape:vp_x="0 : 526.18109 : 1" inkscape:vp_y="0 : 1000 : 0" inkscape:vp_z="744.09448 : 526.18109 : 1" inkscape:persp3d-origin="372.04724 : 350.78739 : 1" id="perspective90"/>
    <linearGradient id="linearGradient20316">
      <stop style="stop-color:#347fb6;stop-opacity:0;" offset="0" id="stop20318"/>
      <stop style="stop-color:#000000;stop-opacity:1;" offset="1" id="stop20320"/>
    </linearGradient>
    <linearGradient id="linearGradient16207" inkscape:collect="always">
      <stop id="stop16209" offset="0" style="stop-color:#00ff00;stop-opacity:1;"/>
      <stop id="stop16211" offset="1" style="stop-color:#00ffff;stop-opacity:0"/>
    </linearGradient>
    <linearGradient inkscape:collect="always" id="linearGradient16185">
      <stop style="stop-color:#00ff00;stop-opacity:1;" offset="0" id="stop16187"/>
      <stop style="stop-color:#00ff00;stop-opacity:0;" offset="1" id="stop16189"/>
    </linearGradient>
    <linearGradient inkscape:collect="always" id="linearGradient16177">
      <stop style="stop-color:#ffff00;stop-opacity:1;" offset="0" id="stop16179"/>
      <stop style="stop-color:#ffff00;stop-opacity:0;" offset="1" id="stop16181"/>
    </linearGradient>
    <linearGradient inkscape:collect="always" id="linearGradient16169">
      <stop style="stop-color:#ff0000;stop-opacity:1;" offset="0" id="stop16171"/>
      <stop style="stop-color:#ff0000;stop-opacity:0;" offset="1" id="stop16173"/>
    </linearGradient>
    <linearGradient inkscape:collect="always" id="linearGradient16161">
      <stop style="stop-color:#ff00ff;stop-opacity:1;" offset="0" id="stop16163"/>
      <stop style="stop-color:#ff00ff;stop-opacity:0;" offset="1" id="stop16165"/>
    </linearGradient>
    <clipPath clipPathUnits="userSpaceOnUse" id="clipPath16220">
      <text xml:space="preserve" style="font-size:119.52226257px;font-weight:bold;opacity:1;fill:#ff00ff;fill-opacity:1;fill-rule:nonzero;stroke:none;stroke-width:5;stroke-linecap:round;stroke-linejoin:round;marker:none;marker-start:none;marker-mid:none;marker-end:none;stroke-miterlimit:4;stroke-dasharray:none;stroke-dashoffset:0;stroke-opacity:1;visibility:visible;display:inline;overflow:visible;enable-background:accumulate;font-family:Arial" id="text16222" transform="translate(174.28572,-1065.7143)" x="-2043.1331" y="909.42334"><tspan id="tspan16226">R  mi BERTHOLET</tspan></text>
    </clipPath>
    <linearGradient inkscape:collect="always" xlink:href="#linearGradient16207" id="linearGradient16228" gradientUnits="userSpaceOnUse" x1="-208.57143" y1="1549.505" x2="-348.57144" y2="1643.7908"/>
    <linearGradient inkscape:collect="always" xlink:href="#linearGradient16177" id="linearGradient16230" gradientUnits="userSpaceOnUse" x1="114.28571" y1="469.50513" x2="257.14285" y2="106.64798"/>
    <linearGradient inkscape:collect="always" xlink:href="#linearGradient16169" id="linearGradient16232" gradientUnits="userSpaceOnUse" x1="314.28571" y1="338.07657" x2="185.71428" y2="466.64798"/>
    <linearGradient inkscape:collect="always" xlink:href="#linearGradient16161" id="linearGradient16234" gradientUnits="userSpaceOnUse" x1="494.28571" y1="1512.3622" x2="337.14285" y2="1198.0764"/>
    <linearGradient inkscape:collect="always" xlink:href="#linearGradient16185" id="linearGradient16236" gradientUnits="userSpaceOnUse" x1="-197.14287" y1="1505.2194" x2="-645.71429" y2="1543.7908"/>
    <mask maskUnits="userSpaceOnUse" id="mask16238">
      <text xml:space="preserve" style="font-size:86.53501892px;font-weight:bold;opacity:1;fill:#0000ff;fill-opacity:1;fill-rule:nonzero;stroke:none;stroke-width:5;stroke-linecap:round;stroke-linejoin:round;marker:none;marker-start:none;marker-mid:none;marker-end:none;stroke-miterlimit:4;stroke-dasharray:none;stroke-dashoffset:0;stroke-opacity:1;visibility:visible;display:inline;overflow:visible;enable-background:accumulate;font-family:Gulim" x="-1229.2124" y="392.82397" id="text16240" transform="scale(1.0229003,0.9776124)"><tspan sodipodi:role="line" id="tspan16242" x="-1229.2124" y="392.82397" style="font-family:Arial">R  mi BERTHOLET</tspan></text>
    </mask>
    <filter inkscape:collect="always" id="filter3253" x="-0.054483913" width="1.1089678" y="-0.17075092" height="1.3415018">
      <feGaussianBlur inkscape:collect="always" stdDeviation="1.6267253" id="feGaussianBlur3255"/>
    </filter>
    <clipPath clipPathUnits="userSpaceOnUse" id="clipPath3261">
      <path id="path3263" d="M 293.557,-220.46627 L 293.557,-210.87252 L 293.65075,-210.87252 C 294.06705,-202.21338 309.96855,-195.24752 329.4945,-195.24752 C 349.01979,-195.24752 364.88966,-202.21379 365.307,-210.87252 L 365.40075,-210.87252 L 365.40075,-219.18502 C 365.40076,-212.04425 349.34418,-206.24752 329.557,-206.24752 C 309.76981,-206.24752 293.71325,-212.04425 293.71325,-219.18502 C 293.71325,-219.62126 293.78369,-220.04108 293.90075,-220.46627 L 293.557,-220.46627 z M 365.40075,-219.18502 L 365.40075,-220.46627 L 365.21325,-220.46627 C 365.33021,-220.04127 365.40075,-219.62106 365.40075,-219.18502 z" style="opacity:1;fill:#347fb6;fill-opacity:1;fill-rule:evenodd;stroke:none;stroke-width:1px;stroke-linecap:butt;stroke-linejoin:miter;stroke-opacity:1"/>
    </clipPath>
    <filter inkscape:collect="always" id="filter3305" x="-0.30245319" width="1.6049064" y="-0.23614496" height="1.4722899">
      <feGaussianBlur inkscape:collect="always" stdDeviation="7.2618013" id="feGaussianBlur3307"/>
    </filter>
    <clipPath clipPathUnits="userSpaceOnUse" id="clipPath3315">
      <path style="opacity:0.21839079;fill:#ff0000;fill-opacity:0.75;fill-rule:evenodd;stroke:none;stroke-width:1px;stroke-linecap:butt;stroke-linejoin:miter;stroke-opacity:1" d="M 421.78421,17.093819 C 416.58354,18.406089 410.59332,19.156319 404.19046,19.156319 C 398.23622,19.156319 392.60306,18.521049 387.65921,17.375069 L 381.78421,73.406319 C 381.55113,73.991611 381.46327,74.605054 381.44046,75.218819 C 381.43885,75.30136 381.40976,75.386049 381.40921,75.468819 C 381.41801,76.179307 381.55086,76.860317 381.84671,77.531318 C 382.15124,78.221908 382.61217,78.896608 383.19046,79.531318 C 383.76875,80.166018 384.46282,80.747998 385.28421,81.312568 C 386.10561,81.877138 387.06292,82.426138 388.09671,82.906318 C 389.13049,83.386498 390.25623,83.806048 391.47171,84.187568 C 392.6872,84.569098 393.98023,84.918958 395.34671,85.187568 C 396.71321,85.456168 398.14117,85.671138 399.62796,85.812568 C 401.11476,85.953998 402.67657,86.000068 404.25296,86.000068 C 405.82936,86.000068 407.35993,85.953998 408.84671,85.812568 C 410.33352,85.671138 411.76147,85.456178 413.12796,85.187568 C 414.49446,84.918958 415.78747,84.569088 417.00296,84.187568 C 418.21845,83.806048 419.34417,83.386498 420.37796,82.906318 C 421.41174,82.426138 422.36906,81.877138 423.19046,81.312568 C 424.01187,80.747998 424.70592,80.166028 425.28421,79.531318 C 425.86253,78.896608 426.32347,78.221908 426.62796,77.531318 C 426.7825,77.180878 426.76865,76.830882 426.84671,76.468819 C 426.86075,76.173227 426.94046,75.8925 426.94046,75.593819 C 426.94046,75.040295 426.80071,74.511333 426.75296,73.968819 C 426.68445,73.735438 426.72864,73.478379 426.62796,73.250069 C 426.53175,73.031838 426.37886,72.837908 426.25296,72.625069 L 421.78421,17.093819 z" id="path3317"/>
    </clipPath>
    <clipPath clipPathUnits="userSpaceOnUse" id="clipPath3335">
      <path style="opacity:1;fill:#347fb6;fill-opacity:1;fill-rule:nonzero;stroke:none;stroke-width:5;stroke-linecap:round;stroke-linejoin:round;marker:none;marker-start:none;marker-mid:none;marker-end:none;stroke-miterlimit:4;stroke-dasharray:none;stroke-dashoffset:0;stroke-opacity:1;visibility:visible;display:inline;overflow:visible;enable-background:accumulate" d="M 384.94236,120.94146 L 379.24718,78.74536 L 387.53108,77.451001 L 382.61251,61.918693 L 354.65436,76.156642 L 351.80677,110.58659 L 382.61251,130.26085 L 384.94236,120.94146 z" id="path3337"/>
    </clipPath>
    <clipPath clipPathUnits="userSpaceOnUse" id="clipPath3345">
      <path id="path3347" d="M 168.83547,-47.468381 C 148.73079,-49.082391 133.02753,-56.180581 129.57715,-65.21394 C 128.7754,-67.31298 128.55453,-69.50861 128.84919,-72.45046 C 130.04859,-84.425 136.48945,-94.96017 147.21968,-102.49869 C 148.59615,-103.46573 153.18821,-106.15827 153.16822,-105.98659 C 153.13698,-105.71839 152.33863,-99.18068 152.22795,-98.28677 C 151.66862,-93.76913 158.22552,-89.38131 167.92634,-87.78158 C 170.93138,-87.28603 178.56196,-87.22508 181.52019,-87.673 C 187.68772,-88.60686 192.72518,-90.59572 195.57391,-93.22159 C 197.48294,-94.98126 198.11699,-96.75853 197.67765,-99.11842 C 197.1164,-102.13311 196.96745,-103.16524 196.83395,-104.96448 L 196.695,-106.83726 L 198.29755,-106.03313 C 209.08905,-100.61821 217.18302,-91.75748 220.71712,-81.48972 C 222.2131,-77.1434 222.64233,-74.59807 222.66208,-69.95612 C 222.68075,-65.56746 222.67866,-65.55101 221.90427,-64.00207 C 220.91281,-62.018921 217.17185,-58.211881 214.52634,-56.493811 C 208.10196,-52.321621 199.13729,-49.451991 187.73311,-47.917171 C 184.98962,-47.547941 171.75846,-47.233721 168.83547,-47.468381 L 168.83547,-47.468381 z" style="opacity:1;fill:#347fb6;fill-opacity:1;fill-rule:nonzero;stroke:none;stroke-width:5;stroke-linecap:round;stroke-linejoin:round;marker:none;marker-start:none;marker-mid:none;marker-end:none;stroke-miterlimit:4;stroke-dasharray:none;stroke-dashoffset:0;stroke-opacity:1;visibility:visible;display:inline;overflow:visible;enable-background:accumulate"/>
    </clipPath>
    <filter inkscape:collect="always" id="filter3993" x="-0.48078859" width="1.9615772" y="-0.28250647" height="1.5650129">
      <feGaussianBlur inkscape:collect="always" stdDeviation="6.997899" id="feGaussianBlur3995"/>
    </filter>
    <filter inkscape:collect="always" id="filter4145" x="-0.17959522" width="1.3591903" y="-0.11945552" height="1.238911">
      <feGaussianBlur inkscape:collect="always" stdDeviation="2.8088997" id="feGaussianBlur4147"/>
    </filter>
    <clipPath clipPathUnits="userSpaceOnUse" id="clipPath4149">
      <path clip-path="none" id="path4151" d="M 425.78901,68.885378 L 426.28901,75.135378 C 426.41491,75.348217 426.56779,75.542143 426.66401,75.760378 C 426.76469,75.988688 426.72049,76.245745 426.78901,76.479125 C 426.83676,77.021645 426.9765,77.550605 426.97651,78.104125 C 426.97651,78.402805 426.89679,78.683535 426.88276,78.979125 C 426.8047,79.341195 426.81854,79.691185 426.66401,80.041625 C 426.35952,80.732215 425.89857,81.406915 425.32026,82.041625 C 424.74197,82.676335 424.04791,83.258305 423.22651,83.822875 C 422.40511,84.387455 421.44778,84.936445 420.41401,85.416625 C 419.38022,85.896805 418.25449,86.316355 417.03901,86.697875 C 415.82352,87.079405 414.5305,87.429265 413.16401,87.697875 C 411.79752,87.966485 410.36956,88.181445 408.88276,88.322875 C 407.39598,88.464315 405.8654,88.510375 404.28901,88.510375 C 402.71262,88.510375 401.1508,88.464305 399.66401,88.322875 C 398.17722,88.181445 396.74926,87.966475 395.38276,87.697875 C 394.01628,87.429275 392.72324,87.079405 391.50776,86.697875 C 390.29228,86.316355 389.16653,85.896805 388.13276,85.416625 C 387.09897,84.936455 386.14165,84.387445 385.32026,83.822875 C 384.49887,83.258305 383.80479,82.676325 383.22651,82.041625 C 382.64822,81.406925 382.18728,80.732215 381.88276,80.041625 C 381.58691,79.370625 381.45405,78.689615 381.44526,77.979125 C 381.44581,77.896355 381.47489,77.811665 381.47651,77.729125 C 381.49932,77.115365 381.58717,76.501915 381.82026,75.916628 L 382.47651,69.666628 C 367.74799,76.883375 357.72651,90.943345 357.72651,107.10413 C 357.72651,121.26477 365.44121,133.80283 377.25776,141.54163 C 365.49166,133.79411 357.85151,121.23619 357.85151,107.10413 C 357.85151,107.0182 357.8822,106.93995 357.88276,106.85413 C 357.90101,108.32738 358.20676,109.77525 358.82026,111.16663 C 359.45166,112.59862 360.37113,113.97551 361.57026,115.29163 C 362.7694,116.60775 364.24203,117.83969 365.94526,119.01038 C 367.64849,120.18107 369.58286,121.29594 371.72651,122.29163 C 373.87016,123.28732 376.20609,124.18801 378.72651,124.97913 C 381.24693,125.77025 383.95548,126.4534 386.78901,127.01038 C 389.62254,127.56736 392.58103,127.99836 395.66401,128.29163 C 398.74699,128.5849 401.95774,128.72913 405.22651,128.72913 C 408.49528,128.72913 411.67478,128.5849 414.75776,128.29163 C 417.84074,127.99836 420.83048,127.56736 423.66401,127.01038 C 426.49754,126.4534 429.17484,125.77025 431.69526,124.97913 C 434.21568,124.18801 436.55161,123.28732 438.69526,122.29163 C 440.83891,121.29594 442.80453,120.18107 444.50776,119.01038 C 446.21099,117.83969 447.65237,116.60775 448.85151,115.29163 C 450.05065,113.97551 451.00136,112.59862 451.63276,111.16663 C 451.95317,110.43996 451.97091,109.6674 452.13276,108.91663 C 452.04458,110.77465 451.84908,112.59753 451.50776,114.38538 C 451.97108,112.01518 452.22651,109.59602 452.22651,107.10413 C 452.22651,90.323425 441.45058,75.825573 425.78901,68.885378 z M 451.50776,114.38538 C 451.28452,115.55475 451.02152,116.71932 450.69526,117.85413 C 451.02494,116.72603 451.28056,115.54765 451.50776,114.38538 z M 450.60151,118.10413 C 450.44998,118.61802 450.27358,119.1292 450.10151,119.63538 C 450.27683,119.12669 450.44678,118.62056 450.60151,118.10413 z M 449.57026,121.10413 C 449.32612,121.73137 449.06356,122.36507 448.78901,122.97913 C 449.06326,122.36216 449.32756,121.73458 449.57026,121.10413 z M 377.28901,141.54163 C 379.43104,142.94278 381.67886,144.19398 384.07026,145.26038 C 381.68686,144.19045 379.42276,142.94497 377.28901,141.54163 z M 387.78901,146.72913 C 389.03475,147.16879 390.30713,147.57182 391.60151,147.91663 C 390.30059,147.56747 389.04035,147.17424 387.78901,146.72913 z" style="opacity:1;fill:#347fb6;fill-opacity:1;fill-rule:evenodd;stroke:none;stroke-width:1px;stroke-linecap:butt;stroke-linejoin:miter;stroke-opacity:1"/>
    </clipPath>
    <filter inkscape:collect="always" id="filter4209" x="-0.055422887" width="1.1108458" y="-0.20173846" height="1.403477">
      <feGaussianBlur inkscape:collect="always" stdDeviation="2.1721088" id="feGaussianBlur4211"/>
    </filter>
    <clipPath clipPathUnits="userSpaceOnUse" id="clipPath4221">
      <path clip-path="none" id="path4223" d="M 350.71619,7.5327627 L 351.21619,13.782764 C 351.34209,13.995604 351.49497,14.189524 351.59119,14.407764 C 351.69187,14.636074 351.64767,14.893124 351.71619,15.126514 C 351.76394,15.669024 351.90368,16.197984 351.90369,16.751514 C 351.90369,17.050194 351.82397,17.330914 351.80994,17.626514 C 351.73188,17.988574 351.74572,18.338564 351.59119,18.689014 C 351.2867,19.379604 350.82575,20.054294 350.24744,20.689014 C 349.66915,21.323724 348.97509,21.905684 348.15369,22.470264 C 347.33229,23.034834 346.37496,23.583834 345.34119,24.064014 C 344.3074,24.544194 343.18167,24.963744 341.96619,25.345264 C 340.7507,25.726784 339.45768,26.076644 338.09119,26.345264 C 336.7247,26.613874 335.29674,26.828824 333.80994,26.970264 C 332.32316,27.111694 330.79258,27.157764 329.21619,27.157764 C 327.6398,27.157764 326.07798,27.111684 324.59119,26.970264 C 323.1044,26.828834 321.67643,26.613864 320.30994,26.345264 C 318.94346,26.076654 317.65042,25.726784 316.43494,25.345264 C 315.21946,24.963744 314.09371,24.544184 313.05994,24.064014 C 312.02615,23.583834 311.06883,23.034834 310.24744,22.470264 C 309.42605,21.905694 308.73197,21.323714 308.15369,20.689014 C 307.5754,20.054304 307.11446,19.379594 306.80994,18.689014 C 306.51409,18.018014 306.38123,17.336994 306.37244,16.626514 C 306.37299,16.543744 306.40207,16.459054 306.40369,16.376514 C 306.4265,15.762744 306.51435,15.149304 306.74744,14.564014 L 307.40369,8.3140127 C 292.67517,15.530754 282.65369,29.590734 282.65369,45.751514 C 282.65369,59.912154 290.36839,72.450214 302.18494,80.189014 C 290.41884,72.441494 282.77869,59.883574 282.77869,45.751514 C 282.77869,45.665584 282.80938,45.587334 282.80994,45.501514 C 282.82819,46.974764 283.13394,48.422634 283.74744,49.814014 C 284.37884,51.246004 285.29831,52.622894 286.49744,53.939014 C 287.69658,55.255134 289.16921,56.487074 290.87244,57.657764 C 292.57567,58.828454 294.51004,59.943324 296.65369,60.939014 C 298.79734,61.934704 301.13327,62.835394 303.65369,63.626514 C 306.17411,64.417634 308.88266,65.100784 311.71619,65.657764 C 314.54972,66.214744 317.50821,66.645744 320.59119,66.939014 C 323.67417,67.232284 326.88492,67.376514 330.15369,67.376514 C 333.42246,67.376514 336.60196,67.232284 339.68494,66.939014 C 342.76792,66.645744 345.75766,66.214744 348.59119,65.657764 C 351.42472,65.100784 354.10202,64.417634 356.62244,63.626514 C 359.14286,62.835394 361.47879,61.934704 363.62244,60.939014 C 365.76609,59.943324 367.73171,58.828454 369.43494,57.657764 C 371.13817,56.487074 372.57955,55.255134 373.77869,53.939014 C 374.97783,52.622894 375.92854,51.246004 376.55994,49.814014 C 376.88035,49.087344 376.89809,48.314784 377.05994,47.564014 C 376.97176,49.422034 376.77626,51.244914 376.43494,53.032764 C 376.89826,50.662564 377.15369,48.243404 377.15369,45.751514 C 377.15369,28.970804 366.37776,14.472954 350.71619,7.5327627 z M 376.43494,53.032764 C 376.2117,54.202134 375.9487,55.366704 375.62244,56.501514 C 375.95212,55.373414 376.20774,54.195034 376.43494,53.032764 z M 375.52869,56.751514 C 375.37716,57.265404 375.20076,57.776584 375.02869,58.282764 C 375.20401,57.774074 375.37396,57.267944 375.52869,56.751514 z M 374.49744,59.751514 C 374.2533,60.378754 373.99074,61.012454 373.71619,61.626514 C 373.99044,61.009544 374.25474,60.381964 374.49744,59.751514 z M 302.21619,80.189014 C 304.35822,81.590161 306.60604,82.841361 308.99744,83.907761 C 306.61404,82.837831 304.34994,81.592351 302.21619,80.189014 z M 312.71619,85.376511 C 313.96193,85.816171 315.23431,86.219201 316.52869,86.564011 C 315.22777,86.214851 313.96753,85.821621 312.71619,85.376511 z" style="opacity:1;fill:#b6343c;fill-opacity:1;fill-rule:evenodd;stroke:none;stroke-width:1px;stroke-linecap:butt;stroke-linejoin:miter;stroke-opacity:1"/>
    </clipPath>
    <filter inkscape:collect="always" id="filter4282" x="-0.1325935" width="1.265187" y="-0.54173911" height="2.0834782">
      <feGaussianBlur inkscape:collect="always" stdDeviation="2.5063856" id="feGaussianBlur4284"/>
    </filter>
    <linearGradient inkscape:collect="always" xlink:href="#linearGradient4795" id="linearGradient4801" x1="146.19041" y1="-99.078354" x2="203.92746" y2="-25.858351" gradientUnits="userSpaceOnUse"/>
    <filter inkscape:collect="always" id="filter4901" x="-0.54624712" width="2.0924942" y="-0.32096925" height="1.6419384">
      <feGaussianBlur inkscape:collect="always" stdDeviation="7.9506509" id="feGaussianBlur4903"/>
    </filter>
    <filter inkscape:collect="always" id="filter4969" x="-0.052747332" width="1.1054947" y="-0.19039562" height="1.3807913">
      <feGaussianBlur inkscape:collect="always" stdDeviation="2.0499811" id="feGaussianBlur4971"/>
    </filter>
    <filter inkscape:collect="always" id="filter5003" x="-0.082423694" width="1.1648474" y="-0.11393859" height="1.2278773">
      <feGaussianBlur inkscape:collect="always" stdDeviation="0.41785311" id="feGaussianBlur5005"/>
    </filter>
    <linearGradient inkscape:collect="always" xlink:href="#linearGradient4795" id="linearGradient5036" gradientUnits="userSpaceOnUse" x1="146.19041" y1="-99.078354" x2="203.92746" y2="-25.858351"/>
    <filter inkscape:collect="always" id="filter5118" x="-0.1341961" width="1.2683922" y="-0.33302644" height="1.6660529">
      <feGaussianBlur inkscape:collect="always" stdDeviation="0.33231877" id="feGaussianBlur5120"/>
    </filter>
    <linearGradient inkscape:collect="always" xlink:href="#linearGradient4795" id="linearGradient5138" gradientUnits="userSpaceOnUse" x1="146.19041" y1="-99.078354" x2="203.92746" y2="-25.858351"/>
    <linearGradient inkscape:collect="always" xlink:href="#linearGradient4795" id="linearGradient5154" gradientUnits="userSpaceOnUse" x1="146.19041" y1="-99.078354" x2="203.92746" y2="-25.858351"/>
    <linearGradient inkscape:collect="always" xlink:href="#linearGradient4795" id="linearGradient5169" gradientUnits="userSpaceOnUse" x1="146.19041" y1="-99.078354" x2="203.92746" y2="-25.858351"/>
    <filter inkscape:collect="always" id="filter5219" x="-0.034670819" width="1.0693417" y="-0.24910061" height="1.4982013">
      <feGaussianBlur inkscape:collect="always" stdDeviation="0.94194536" id="feGaussianBlur5221"/>
    </filter>
    <clipPath clipPathUnits="userSpaceOnUse" id="clipPath5223">
      <path transform="matrix(1.107771,0,0,0.9428563,-88.78535,-62.314082)" d="M 433.86914,9.8854446 A 32.358974,13.720205 0 1 1 369.15119,9.8854446 A 32.358974,13.720205 0 1 1 433.86914,9.8854446 z" sodipodi:ry="13.720205" sodipodi:rx="32.358974" sodipodi:cy="9.8854446" sodipodi:cx="401.51016" id="path5225" style="fill:#336894;fill-opacity:1;fill-rule:evenodd;stroke:none;stroke-width:1px;stroke-linecap:butt;stroke-linejoin:miter;stroke-opacity:1" sodipodi:type="arc"/>
    </clipPath>
    <linearGradient inkscape:collect="always" xlink:href="#linearGradient4795" id="linearGradient5408" gradientUnits="userSpaceOnUse" x1="146.19041" y1="-99.078354" x2="203.92746" y2="-25.858351"/>
    <filter inkscape:collect="always" id="filter5470" x="-0.49721602" width="1.994432" y="-0.047644455" height="1.0952889">
      <feGaussianBlur inkscape:collect="always" stdDeviation="0.61145138" id="feGaussianBlur5472"/>
    </filter>
    <clipPath clipPathUnits="userSpaceOnUse" id="clipPath5476">
      <path sodipodi:nodetypes="ccczzsscc" id="path5478" d="M 404.11001,101.79904 L 414.72691,101.43294 C 414.72691,101.43294 415.66627,122.69835 416.00826,130.72094 C 415.70018,131.5322 415.23796,131.72975 414.44678,132.14188 C 413.66927,132.54689 412.25449,132.43516 410.49455,132.16408 C 408.7392,131.89371 407.82462,131.27009 407.03881,130.72094 C 406.16392,130.10954 406.14482,130.15053 405.20831,128.70739 C 404.28963,127.29171 404.11001,125.96164 404.11001,125.96164 L 404.11001,101.79904 z" style="opacity:1;fill:#918b7b;fill-opacity:1;fill-rule:nonzero;stroke:none;stroke-width:5;stroke-linecap:round;stroke-linejoin:round;marker:none;marker-start:none;marker-mid:none;marker-end:none;stroke-miterlimit:4;stroke-dasharray:none;stroke-dashoffset:0;stroke-opacity:1;visibility:visible;display:inline;overflow:visible;enable-background:accumulate"/>
    </clipPath>
    <filter inkscape:collect="always" id="filter5554" x="-0.33794764" width="1.6758953" y="-0.05278236" height="1.1055647">
      <feGaussianBlur inkscape:collect="always" stdDeviation="0.64653045" id="feGaussianBlur5556"/>
    </filter>
    <clipPath clipPathUnits="userSpaceOnUse" id="clipPath5558">
      <path style="opacity:1;fill:#918b7b;fill-opacity:1;fill-rule:nonzero;stroke:none;stroke-width:5;stroke-linecap:round;stroke-linejoin:round;marker:none;marker-start:none;marker-mid:none;marker-end:none;stroke-miterlimit:4;stroke-dasharray:none;stroke-dashoffset:0;stroke-opacity:1;visibility:visible;display:inline;overflow:visible;enable-background:accumulate" d="M 398.22068,94.615358 L 409.74363,94.249258 C 409.74363,94.249258 410.68299,115.51467 411.02498,123.53726 C 410.7169,124.34852 410.25468,124.54607 409.4635,124.9582 C 408.68599,125.36321 407.27121,125.25148 405.51127,124.9804 C 403.75592,124.71003 402.84134,124.08641 402.05553,123.53726 C 401.18064,122.92586 401.16154,122.96685 400.22503,121.52371 C 399.30635,120.10803 399.12673,118.77796 399.12673,118.77796 L 398.22068,94.615358 z" id="path5560" sodipodi:nodetypes="ccczzsscc"/>
    </clipPath>
    <clipPath clipPathUnits="userSpaceOnUse" id="clipPath5568">
      <path sodipodi:nodetypes="ccczzsscc" id="path5570" d="M 380.2716,99.75948 L 391.79455,99.39338 C 391.79455,99.39338 392.73391,120.65879 393.0759,128.68138 C 392.76782,129.49264 392.3056,129.69019 391.51442,130.10232 C 390.73691,130.50733 389.32213,130.3956 387.56219,130.12452 C 385.80684,129.85415 384.89226,129.23053 384.10645,128.68138 C 383.23156,128.06998 383.21246,128.11097 382.27595,126.66783 C 381.35727,125.25215 381.17765,123.92208 381.17765,123.92208 L 380.2716,99.75948 z" style="opacity:1;fill:#b8b17a;fill-opacity:1;fill-rule:nonzero;stroke:none;stroke-width:5;stroke-linecap:round;stroke-linejoin:round;marker:none;marker-start:none;marker-mid:none;marker-end:none;stroke-miterlimit:4;stroke-dasharray:none;stroke-dashoffset:0;stroke-opacity:1;visibility:visible;display:inline;overflow:visible;enable-background:accumulate"/>
    </clipPath>
    <linearGradient inkscape:collect="always" xlink:href="#linearGradient4795" id="linearGradient5602" gradientUnits="userSpaceOnUse" x1="146.19041" y1="-99.078354" x2="203.92746" y2="-25.858351"/>
    <filter inkscape:collect="always" id="filter5750" x="-0.42798004" width="1.8559601" y="-0.32518134" height="1.6503627">
      <feGaussianBlur inkscape:collect="always" stdDeviation="4.8649292" id="feGaussianBlur5752"/>
    </filter>
    <filter inkscape:collect="always" id="filter5766" x="-0.13613455" width="1.2722691" y="-0.21429519" height="1.4285904">
      <feGaussianBlur inkscape:collect="always" stdDeviation="10.144088" id="feGaussianBlur5768"/>
    </filter>
    <linearGradient inkscape:collect="always" xlink:href="#linearGradient4795" id="linearGradient5770" gradientUnits="userSpaceOnUse" x1="146.19041" y1="-99.078354" x2="203.92746" y2="-25.858351"/>
    <linearGradient inkscape:collect="always" xlink:href="#linearGradient4795" id="linearGradient5794" gradientUnits="userSpaceOnUse" x1="146.19041" y1="-99.078354" x2="203.92746" y2="-25.858351"/>
    <linearGradient inkscape:collect="always" xlink:href="#linearGradient4795" id="linearGradient5826" gradientUnits="userSpaceOnUse" x1="146.19041" y1="-99.078354" x2="203.92746" y2="-25.858351"/>
    <linearGradient inkscape:collect="always" xlink:href="#linearGradient4795" id="linearGradient5853" gradientUnits="userSpaceOnUse" x1="146.19041" y1="-99.078354" x2="203.92746" y2="-25.858351"/>
  </defs>
  <sodipodi:namedview inkscape:document-units="mm" id="base" pagecolor="#ffffff" bordercolor="#666666" borderopacity="1.0" inkscape:pageopacity="0.0" inkscape:pageshadow="2" inkscape:zoom="1.931458" inkscape:cx="92.405365" inkscape:cy="64.535057" inkscape:current-layer="layer1" showguides="true" inkscape:guide-bbox="true" inkscape:window-width="1024" inkscape:window-height="724" inkscape:window-x="0" inkscape:window-y="-7" showgrid="false"/>
  <metadata id="metadata4">
    <rdf:RDF>
      <cc:Work rdf:about="">
        <dc:format>image/svg+xml</dc:format>
        <dc:type rdf:resource="http://purl.org/dc/dcmitype/StillImage"/>
      </cc:Work>
    </rdf:RDF>
  </metadata>
  <g inkscape:label="Layer 1" inkscape:groupmode="layer" id="layer1" transform="translate(-73.900593,-198.683)">
    <g id="g16213" clip-path="url(#clipPath16220)" transform="matrix(1.3266524,-8.3113559e-2,-0.7693676,0.8019772,1402.7982,414.70965)">
      <rect ry="215.56625" y="1266.7958" x="-405.56622" height="431.13251" width="925.41815" id="rect12935" style="fill:url(#linearGradient16228);fill-opacity:1;fill-rule:evenodd;stroke:#000000;stroke-width:1.29608428px;stroke-linecap:butt;stroke-linejoin:miter;stroke-opacity:1"/>
      <path transform="translate(-157.14285,1185.7142)" d="M 299.99999,500.9336 L 163.20377,562.61748 L 22.857141,509.50503 L -38.826738,372.7088 L 14.285712,232.36218 L 151.08194,170.6783 L 291.42856,223.79075 L 353.11244,360.58697 L 299.99999,500.9336 z" inkscape:randomized="0" inkscape:rounded="0" inkscape:flatsided="true" sodipodi:arg2="1.1471793" sodipodi:arg1="0.75448018" sodipodi:r2="181.13887" sodipodi:r1="196.06329" sodipodi:cy="366.64789" sodipodi:cx="157.14285" sodipodi:sides="8" id="path16014" style="fill:url(#linearGradient16230);fill-opacity:1;fill-rule:evenodd;stroke:#000000;stroke-width:1px;stroke-linecap:butt;stroke-linejoin:miter;stroke-opacity:1" sodipodi:type="star"/>
      <path transform="translate(-157.14285,1185.7142)" d="M 522.85715,303.79074 A 210,117.14286 0 1 1 102.85715,303.79074 A 210,117.14286 0 1 1 522.85715,303.79074 z" sodipodi:ry="117.14286" sodipodi:rx="210" sodipodi:cy="303.79074" sodipodi:cx="312.85715" id="path16016" style="fill:url(#linearGradient16232);fill-opacity:1;fill-rule:evenodd;stroke:#000000;stroke-width:1px;stroke-linecap:butt;stroke-linejoin:miter;stroke-opacity:1" sodipodi:type="arc"/>
      <path transform="translate(34.285715,114.28571)" d="M 668.57141,1580.9336 L 476.0462,1532.3058 L 476.28137,1730.8771 L 374.53053,1560.3562 L 234.2857,1700.9336 L 282.9135,1508.4084 L 84.342192,1508.6436 L 254.86311,1406.8927 L 114.28571,1266.6479 L 306.81092,1315.2757 L 306.57575,1116.7044 L 408.32659,1287.2253 L 548.57141,1146.6479 L 499.94362,1339.1731 L 698.51492,1338.938 L 527.994,1440.6888 L 668.57141,1580.9336 z" inkscape:randomized="0" inkscape:rounded="0" inkscape:flatsided="false" sodipodi:arg2="0.90850817" sodipodi:arg1="0.51580909" sodipodi:r2="137.60692" sodipodi:r1="318.59384" sodipodi:cy="1423.7908" sodipodi:cx="391.42856" sodipodi:sides="8" id="path16053" style="fill:url(#linearGradient16234);fill-opacity:1;fill-rule:evenodd;stroke:#000000;stroke-width:1px;stroke-linecap:butt;stroke-linejoin:miter;stroke-opacity:1" sodipodi:type="star"/>
      <path transform="translate(45.714286,-17.142857)" d="M -225.71429,1505.2194 A 167.14285,132.85715 0 1 1 -560,1505.2194 A 167.14285,132.85715 0 1 1 -225.71429,1505.2194 z" sodipodi:ry="132.85715" sodipodi:rx="167.14285" sodipodi:cy="1505.2194" sodipodi:cx="-392.85715" id="path16057" style="fill:url(#linearGradient16236);fill-opacity:1;fill-rule:evenodd;stroke:#000000;stroke-width:1px;stroke-linecap:butt;stroke-linejoin:miter;stroke-opacity:1" sodipodi:type="arc"/>
    </g>
    <g id="g5800" transform="matrix(0.9851507,-0.1716918,0.1716918,0.9851507,197.75354,175.77585)">
      <g id="g5796">
        <path style="opacity:0.61029412;fill:#000000;fill-opacity:1;fill-rule:nonzero;stroke:none;stroke-width:5;stroke-linecap:round;stroke-linejoin:round;marker:none;marker-start:none;marker-mid:none;marker-end:none;stroke-miterlimit:4;stroke-dasharray:none;stroke-dashoffset:0;stroke-opacity:1;visibility:visible;display:inline;overflow:visible;filter:url(#filter5750);enable-background:accumulate" d="M -50.053385,165.09481 L -43.406565,154.74356 C -43.406565,154.74356 -28.579355,175.09011 -22.993051,182.77681 C -22.633114,183.85107 -22.777074,184.44825 -22.973843,185.54408 C -23.167217,186.62097 -24.088419,187.73597 -25.322969,188.99155 C -26.554292,190.2439 -27.519685,190.416 -28.358091,190.55064 C -29.291543,190.70052 -29.275475,190.75785 -30.803737,190.13348 C -32.302913,189.521 -33.302594,188.35316 -33.302594,188.35316 L -50.053385,165.09481 z" id="path5482" sodipodi:nodetypes="ccczzsscc" inkscape:transform-center-x="-61.621589" inkscape:transform-center-y="36.302272"/>
        <path id="path5266" d="M 223.10789,162.73537 C 206.97662,169.67279 188.74529,172.79895 175.50962,170.89714 C 169.58755,170.04619 165.46163,168.34251 161.34292,165.04737 C 149.67879,155.7156 145.58664,144.29025 150.24859,134.07183 C 150.84529,132.76395 151.04523,131.89776 150.79113,131.72143 C 150.31411,131.39041 110.64077,98.730369 109.49853,97.728359 C 108.72515,97.049939 108.69445,97.043929 107.44742,97.326589 C 98.266799,99.407549 88.713079,99.606499 82.963009,97.836449 C 80.496529,97.077189 79.877779,96.725899 74.437929,92.996269 C 69.890839,89.878739 69.815299,89.816399 69.347199,88.795019 C 65.222459,79.794939 92.349839,62.629629 117.09877,58.579399 C 123.98638,57.452219 130.31462,57.616259 133.80279,59.012359 C 137.61923,60.539849 144.49727,65.629219 145.72938,67.837379 C 146.94176,70.010129 146.6236,72.935009 144.82446,76.156879 C 144.0523,77.539669 140.3324,81.862549 139.62145,82.203289 C 139.42959,82.295239 139.42406,82.475589 139.60915,82.604039 C 139.79425,82.732489 150.95935,89.556649 164.42046,97.768819 C 177.88158,105.981 189.09458,112.83819 189.33823,113.00704 C 189.5819,113.17588 189.81716,113.21934 189.86103,113.10361 C 189.90493,112.98788 191.24114,112.79389 192.83042,112.67251 C 202.12397,111.96274 212.98315,112.87442 222.8671,115.19427 C 226.66489,116.08565 232.6457,118.03437 236.26393,119.55938 C 241.75429,121.87346 243.50956,122.82751 248.05789,125.96986 C 252.19219,128.82617 252.23355,128.86153 252.81984,130.04055 C 254.24836,132.91328 254.20693,135.86897 252.68535,139.63593 C 250.28967,145.56689 241.99008,153.12375 232.2384,158.25311 C 230.50972,159.1624 228.65277,160.15385 228.11184,160.45633 C 227.57092,160.75882 225.31914,161.78439 223.10788,162.73537 L 223.10789,162.73537 z" style="opacity:0.5;fill:#000000;fill-opacity:1;fill-rule:nonzero;stroke:none;stroke-width:5;stroke-linecap:round;stroke-linejoin:round;marker:none;marker-start:none;marker-mid:none;marker-end:none;stroke-miterlimit:4;stroke-dasharray:none;stroke-dashoffset:0;stroke-opacity:1;visibility:visible;display:inline;overflow:visible;filter:url(#filter5766);enable-background:accumulate" inkscape:transform-center-y="-10.735727" transform="matrix(0.8316772,0.1156291,-0.3233013,0.8085036,-170.57211,11.882638)"/>
      </g>
      <g transform="translate(-65.691373,-14.644)" id="g5772">
        <g transform="matrix(0.999158,4.1028331e-2,-4.1028331e-2,0.999158,-345.50184,108.60427)" id="g5624">
          <path style="opacity:1;fill:#b8b17a;fill-opacity:1;fill-rule:nonzero;stroke:none;stroke-width:5;stroke-linecap:round;stroke-linejoin:round;marker:none;marker-start:none;marker-mid:none;marker-end:none;stroke-miterlimit:4;stroke-dasharray:none;stroke-dashoffset:0;stroke-opacity:1;visibility:visible;display:inline;overflow:visible;enable-background:accumulate" d="M 380.6377,53.630879 L 392.16065,53.264779 C 392.16065,53.264779 393.10001,74.530189 393.442,82.552779 C 393.13392,83.364039 392.6717,83.561589 391.88052,83.973719 C 391.10301,84.378729 389.68823,84.266999 387.92829,83.995919 C 386.17294,83.725549 385.25836,83.101929 384.47255,82.552779 C 383.59766,81.941379 383.57856,81.982369 382.64205,80.539229 C 381.72337,79.123549 381.54375,77.793479 381.54375,77.793479 L 380.6377,53.630879 z" id="path5626" sodipodi:nodetypes="ccczzsscc"/>
          <g id="g5628" clip-path="url(#clipPath5568)" transform="translate(0.3661,-46.128601)">
            <path transform="matrix(2.5568838,3.6779083e-2,-4.2223749e-2,1.0598041,-663.1452,-23.944606)" clip-path="url(#clipPath5476)" id="path5630" d="M 413.27644,131.73365 C 413.73991,131.48931 414.22502,131.06319 414.3917,130.75402 C 414.49452,130.56329 413.55276,106.62084 413.27405,102.34026 L 413.1961,101.14298 L 413.84863,101.14298 C 414.42203,101.14298 414.5081,101.17829 414.5585,101.43421 C 414.59005,101.59438 414.7109,104.05528 414.82706,106.90287 C 414.94323,109.75046 415.12284,113.61616 415.2262,115.49331 C 415.32956,117.37046 415.47103,120.57399 415.54058,122.61228 C 415.61014,124.65057 415.70585,127.26541 415.75328,128.42304 L 415.83953,130.52782 L 415.31368,131.02805 C 414.77997,131.53575 413.8263,131.95296 413.22102,131.94354 L 412.88813,131.93835 L 413.27644,131.73365 z" style="opacity:1;fill:#85807d;fill-opacity:1;fill-rule:nonzero;stroke:none;stroke-width:5;stroke-linecap:round;stroke-linejoin:round;marker:none;marker-start:none;marker-mid:none;marker-end:none;stroke-miterlimit:4;stroke-dasharray:none;stroke-dashoffset:0;stroke-opacity:1;visibility:visible;display:inline;overflow:visible;filter:url(#filter5470);enable-background:accumulate"/>
            <path transform="matrix(1.7679921,0,0,1.1556676,-325.37327,-11.569873)" clip-path="url(#clipPath5558)" id="path5632" d="M 402.08492,123.81544 C 401.32252,123.29519 401.11071,123.10439 400.7109,122.57767 C 399.93078,121.54995 399.33663,120.34831 399.11206,119.34408 C 399.02614,118.95987 398.92505,116.67395 398.59015,107.54193 C 398.3617,101.31283 398.15757,95.90778 398.13653,95.530709 L 398.09826,94.845123 L 398.95474,94.804155 C 399.42581,94.781623 399.82076,94.772722 399.83241,94.784377 C 399.84407,94.79603 400.04188,100.41721 400.272,107.27589 C 400.71856,120.5857 400.67874,119.88956 401.06084,121.06798 C 401.31119,121.84012 402.05337,123.26072 402.55791,123.93351 C 402.64539,124.05017 402.70343,124.15913 402.68691,124.17566 C 402.67038,124.19219 402.39949,124.03009 402.08492,123.81544 L 402.08492,123.81544 z" style="opacity:1;fill:#464845;fill-opacity:1;fill-rule:nonzero;stroke:none;stroke-width:5;stroke-linecap:round;stroke-linejoin:round;marker:none;marker-start:none;marker-mid:none;marker-end:none;stroke-miterlimit:4;stroke-dasharray:none;stroke-dashoffset:0;stroke-opacity:1;visibility:visible;display:inline;overflow:visible;filter:url(#filter5554);enable-background:accumulate"/>
          </g>
        </g>
        <g id="g5392" transform="translate(-245.099,77.613202)">
          <g transform="translate(19.933118,184.30954)" id="g4241">
            <path style="fill:#347fb6;fill-opacity:1;fill-rule:nonzero;stroke:none;stroke-width:5;stroke-linecap:round;stroke-linejoin:round;marker:none;marker-start:none;marker-mid:none;marker-end:none;stroke-miterlimit:4;stroke-dasharray:none;stroke-dashoffset:0;stroke-opacity:1;visibility:visible;display:inline;overflow:visible;enable-background:accumulate" d="M 256.69946,-84.118986 C 236.59478,-85.732996 220.89152,-92.831186 217.44114,-101.86455 C 216.63939,-103.96359 216.41852,-106.15922 216.71318,-109.10107 C 217.91258,-121.07561 224.35344,-131.61078 235.08367,-139.14929 C 236.46014,-140.11633 241.0522,-142.80887 241.03221,-142.6372 C 241.00097,-142.369 242.27359,-135.57242 242.16291,-134.6785 C 241.60358,-130.16087 248.16048,-128.10289 257.8613,-126.50316 C 260.86634,-126.00761 265.64933,-125.68779 268.60756,-126.13571 C 274.77509,-127.06957 277.74158,-128.28182 280.59031,-130.90769 C 282.49934,-132.66736 283.13339,-132.89139 282.69405,-135.25128 C 282.1328,-138.26597 283.53708,-139.81584 283.40358,-141.61508 L 283.65294,-143.48786 L 286.16154,-142.68374 C 296.95304,-137.26882 305.04701,-128.40809 308.58111,-118.14033 C 310.07709,-113.79401 310.50632,-111.24868 310.52607,-106.60673 C 310.54474,-102.21807 310.54265,-102.20162 309.76826,-100.65268 C 308.7768,-98.669525 305.03584,-94.862486 302.39033,-93.144416 C 295.96595,-88.972226 287.00128,-86.102596 275.5971,-84.567776 C 272.85361,-84.198546 259.62245,-83.884326 256.69946,-84.118986 L 256.69946,-84.118986 z" id="path3339" sodipodi:nodetypes="cssssssssscccssssscc"/>
            <path id="path4237" d="M 256.69946,-84.118986 C 236.59478,-85.732996 220.89152,-92.831186 217.44114,-101.86454 C 216.63939,-103.96358 216.41852,-106.15921 216.71318,-109.10106 C 217.91258,-121.0756 224.35344,-131.61077 235.08367,-139.14929 C 236.46014,-140.11633 241.0522,-142.80887 241.03221,-142.6372 C 241.00097,-142.369 240.20262,-135.83129 240.09194,-134.93737 C 239.53261,-130.41973 246.08951,-126.03191 255.79033,-124.43218 C 258.79537,-123.93663 266.42595,-123.87568 269.38418,-124.3236 C 275.55171,-125.25746 280.58917,-127.24632 283.4379,-129.87219 C 285.34693,-131.63186 285.98098,-133.40913 285.54164,-135.76902 C 284.98039,-138.78371 284.83144,-139.81584 284.69794,-141.61508 L 284.55899,-143.48786 L 286.16154,-142.68374 C 296.95304,-137.26882 305.04701,-128.40808 308.58111,-118.14032 C 310.07709,-113.794 310.50632,-111.24867 310.52607,-106.60672 C 310.54474,-102.21806 310.54265,-102.20161 309.76826,-100.65267 C 308.7768,-98.669525 305.03584,-94.862486 302.39033,-93.144416 C 295.96595,-88.972226 287.00128,-86.102596 275.5971,-84.567776 C 272.85361,-84.198546 259.62245,-83.884326 256.69946,-84.118986 L 256.69946,-84.118986 z" style="fill:#347fb6;fill-opacity:1;fill-rule:nonzero;stroke:none;stroke-width:5;stroke-linecap:round;stroke-linejoin:round;marker:none;marker-start:none;marker-mid:none;marker-end:none;stroke-miterlimit:4;stroke-dasharray:none;stroke-dashoffset:0;stroke-opacity:1;visibility:visible;display:inline;overflow:visible;enable-background:accumulate"/>
          </g>
          <path id="path3997" d="M 299.8898,-9.098168 C 294.68913,-7.785898 288.69891,-7.035668 282.29605,-7.035668 C 276.34181,-7.035668 270.70865,-7.670938 265.7648,-8.816918 L 259.8898,47.214332 C 259.65672,47.799622 259.56886,48.413072 259.54605,49.026832 C 259.54444,49.109372 259.51535,49.194062 259.5148,49.276832 C 259.5236,49.987322 259.65645,50.668332 259.9523,51.339332 C 260.25683,52.029922 260.71776,52.704622 261.29605,53.339332 C 261.87434,53.974032 262.56841,54.556012 263.3898,55.120582 C 264.2112,55.685152 265.16851,56.234152 266.2023,56.714332 C 267.23608,57.194512 268.36182,57.614062 269.5773,57.995582 C 270.79279,58.377112 272.08582,58.726972 273.4523,58.995582 C 274.8188,59.264182 276.24676,59.479152 277.73355,59.620582 C 279.22035,59.762012 280.78216,59.808082 282.35855,59.808082 C 283.93495,59.808082 285.46552,59.762012 286.9523,59.620582 C 288.43911,59.479152 289.86706,59.264192 291.23355,58.995582 C 292.60005,58.726972 293.89306,58.377102 295.10855,57.995582 C 296.32404,57.614062 297.44976,57.194512 298.48355,56.714332 C 299.51733,56.234152 300.47465,55.685152 301.29605,55.120582 C 302.11746,54.556012 302.81151,53.974042 303.3898,53.339332 C 303.96812,52.704622 304.42906,52.029922 304.73355,51.339332 C 304.88809,50.988892 304.87424,50.638892 304.9523,50.276832 C 304.96634,49.981242 305.04605,49.700512 305.04605,49.401832 C 305.04605,48.848312 304.9063,48.319342 304.85855,47.776832 C 304.79004,47.543452 304.83423,47.286392 304.73355,47.058082 C 304.63734,46.839852 304.48445,46.645922 304.35855,46.433082 L 299.8898,-9.098168 z" style="fill:#347fb6;fill-opacity:1;fill-rule:evenodd;stroke:none;stroke-width:1px;stroke-linecap:butt;stroke-linejoin:miter;stroke-opacity:1"/>
          <path transform="translate(-121.89441,-25.674245)" clip-path="url(#clipPath3315)" sodipodi:nodetypes="ccsccssc" id="path3271" d="M 374.1542,12.455121 L 425.4082,16.482221 C 425.4082,16.482221 419.5506,22.705921 413.50995,25.634721 C 407.4693,28.563521 401.06255,28.929621 400.1473,31.126221 C 397.20202,49.652819 398.2994,66.908851 397.2185,85.675122 C 396.8524,87.688672 369.0288,83.844622 367.9305,83.844622 C 366.8322,83.844622 372.3237,43.390571 371.9576,34.787221 C 371.5915,26.183871 374.5203,12.821221 374.1542,12.455121 z" style="fill:#32597d;fill-opacity:1;fill-rule:nonzero;stroke:none;stroke-width:5;stroke-linecap:round;stroke-linejoin:round;marker:none;marker-start:none;marker-mid:none;marker-end:none;stroke-miterlimit:4;stroke-dasharray:none;stroke-dashoffset:0;stroke-opacity:1;visibility:visible;display:inline;overflow:visible;filter:url(#filter3305);enable-background:accumulate"/>
          <path id="path4003" d="M 279.68381,61.222762 C 275.38247,60.931632 271.04786,59.968322 267.61356,58.540292 C 264.36566,57.189782 261.7677,55.130282 260.79081,53.131652 C 260.37821,52.287502 260.2334,51.680892 260.23805,50.816142 L 260.24135,50.202852 L 260.41711,50.691382 C 261.87612,54.746912 268.44008,58.106362 277.07784,59.218382 C 281.38943,59.773452 287.12553,59.628702 291.26173,58.860462 C 293.74041,58.400072 296.22428,57.677212 298.34717,56.798442 C 302.05452,55.263782 304.99592,52.744732 305.53931,50.639012 C 305.60799,50.372832 305.61916,50.505702 305.58836,51.222632 C 305.52414,52.717662 305.11454,53.631022 303.94283,54.892002 C 300.77552,58.300622 294.08345,60.682552 286.13633,61.229922 C 284.6092,61.335102 281.28916,61.331422 279.68381,61.222762 L 279.68381,61.222762 z" style="fill:#004080;fill-opacity:1;fill-rule:nonzero;stroke:none;stroke-width:5;stroke-linecap:round;stroke-linejoin:round;marker:none;marker-start:none;marker-mid:none;marker-end:none;stroke-miterlimit:4;stroke-dasharray:none;stroke-dashoffset:0;stroke-opacity:1;visibility:visible;display:inline;overflow:visible;filter:url(#filter4282);enable-background:accumulate"/>
          <path transform="translate(107.40882,147.79558)" clip-path="url(#clipPath3345)" id="path3343" d="M 151.5654,-111.83583 L 157.423,-96.459629 C 157.423,-96.459629 146.44,-89.869829 146.44,-85.476629 C 146.44,-81.083429 153.0298,-77.422429 155.2264,-70.832629 C 157.423,-64.242829 165.4772,-53.259829 163.2806,-45.205629 C 161.084,-37.151428 116.4198,-31.293828 116.4198,-31.293828 L 87.131801,-74.493629 L 110.5622,-108.17483 L 151.5654,-111.83583 z" style="fill:url(#linearGradient5853);fill-opacity:1;fill-rule:nonzero;stroke:none;stroke-width:5;stroke-linecap:round;stroke-linejoin:round;marker:none;marker-start:none;marker-mid:none;marker-end:none;stroke-miterlimit:4;stroke-dasharray:none;stroke-dashoffset:0;stroke-opacity:1;visibility:visible;display:inline;overflow:visible;filter:url(#filter4901);enable-background:accumulate"/>
          <path transform="translate(-121.41089,-28.087594)" clip-path="url(#clipPath4149)" sodipodi:nodetypes="czzzzzccccccc" id="path4083" d="M 420.66666,74.603411 C 420.66666,74.603411 423.83089,75.015416 426.10297,75.89777 C 428.37505,76.780124 432.51601,78.225965 435.42236,81.075206 C 438.32871,83.924447 442.21339,91.452985 443.70625,95.313155 C 445.19911,99.173325 446.16037,103.62439 446.0361,106.18577 C 445.91183,108.74715 445.08977,110.45841 444.224,111.88095 C 443.35823,113.30349 440.59979,115.50515 440.59979,115.50515 L 442.92964,117.57613 L 456.39097,104.1148 L 447.33046,66.837258 L 429.98605,61.142078 L 418.85456,67.872745 L 420.66666,74.603411 z" style="fill:#366889;fill-opacity:1;fill-rule:nonzero;stroke:none;stroke-width:5;stroke-linecap:round;stroke-linejoin:round;marker:none;marker-start:none;marker-mid:none;marker-end:none;stroke-miterlimit:4;stroke-dasharray:none;stroke-dashoffset:0;stroke-opacity:1;visibility:visible;display:inline;overflow:visible;filter:url(#filter4145);enable-background:accumulate"/>
          <path transform="translate(-46.132216,33.335689)" clip-path="url(#clipPath4221)" id="path4155" d="M 322.58979,66.738669 C 305.52809,65.666699 290.65577,60.095319 284.61152,52.511459 C 283.08734,50.599029 281.84388,47.614249 281.86833,45.926769 C 281.87546,45.434939 281.87683,45.435449 282.13413,46.027449 C 283.28349,48.671869 286.37069,51.882759 290.00689,54.215659 C 297.9294,59.298549 309.24742,62.436199 322.68132,63.273879 C 335.8032,64.092089 349.86058,62.061419 360.02352,57.879559 C 363.00079,56.654469 367.04546,54.394299 369.01091,52.857369 C 371.67552,50.773739 374.33548,47.670399 374.96368,45.912379 C 375.17394,45.323939 375.20426,45.300829 375.23309,45.706969 C 375.29606,46.593859 375.5512,44.311589 375.59119,42.503588 C 375.62697,40.886188 375.64828,40.779638 375.77424,41.588338 C 375.98419,42.936298 375.97715,46.789219 375.76267,47.920189 C 375.66026,48.460199 375.33351,49.398139 375.03656,50.004489 L 374.49666,51.106939 L 374.57606,50.374739 C 374.64524,49.736909 374.62331,49.766799 374.40591,50.606709 C 374.09571,51.805129 373.86352,52.160749 372.32718,53.790499 C 363.90615,62.723529 343.44878,68.049219 322.58979,66.738669 L 322.58979,66.738669 z" style="fill:#67a6c0;fill-opacity:1;fill-rule:nonzero;stroke:none;stroke-width:5;stroke-linecap:round;stroke-linejoin:round;marker:none;marker-start:none;marker-mid:none;marker-end:none;stroke-miterlimit:4;stroke-dasharray:none;stroke-dashoffset:0;stroke-opacity:1;visibility:visible;display:inline;overflow:visible;filter:url(#filter4969);enable-background:accumulate"/>
          <path style="fill:#c3f2ff;fill-opacity:1;fill-rule:nonzero;stroke:none;stroke-width:5;stroke-linecap:round;stroke-linejoin:round;marker:none;marker-start:none;marker-mid:none;marker-end:none;stroke-miterlimit:4;stroke-dasharray:none;stroke-dashoffset:0;stroke-opacity:1;visibility:visible;display:inline;overflow:visible;filter:url(#filter5003);enable-background:accumulate" d="M 290.8615,71.9963 L 294.22684,77.69149 L 303.02848,74.58502 L 300.18089,68.88984 L 290.8615,71.9963 z" id="path5007"/>
          <path sodipodi:nodetypes="ccccc" id="path4973" d="M 289.03416,58.048629 L 289.4707,59.533669 L 294.97744,58.257699 L 294.69255,57.138769 L 289.03416,58.048629 z" style="opacity:1;fill:#c3f2ff;fill-opacity:1;fill-rule:nonzero;stroke:none;stroke-width:5;stroke-linecap:round;stroke-linejoin:round;marker:none;marker-start:none;marker-mid:none;marker-end:none;stroke-miterlimit:4;stroke-dasharray:none;stroke-dashoffset:0;stroke-opacity:1;visibility:visible;display:inline;overflow:visible;filter:url(#filter5118);enable-background:accumulate"/>
          <path id="path19345" d="M 246.4198,-31.760533 L 246.4198,-22.166783 L 246.51355,-22.166783 C 246.92984,-13.507642 262.83134,-6.5417824 282.3573,-6.5417824 C 301.88258,-6.5417824 317.75245,-13.508052 318.1698,-22.166783 L 318.26355,-22.166783 L 318.26355,-30.479283 C 318.26355,-23.338513 302.20697,-17.541783 282.4198,-17.541783 C 262.6326,-17.541783 246.57605,-23.338513 246.57605,-30.479283 C 246.57605,-30.915523 246.64649,-31.335343 246.76355,-31.760533 L 246.4198,-31.760533 z M 318.26355,-30.479283 L 318.26355,-31.760533 L 318.07605,-31.760533 C 318.19301,-31.335533 318.26355,-30.915323 318.26355,-30.479283 z" style="fill:#347fb6;fill-opacity:1;fill-rule:evenodd;stroke:none;stroke-width:1px;stroke-linecap:butt;stroke-linejoin:miter;stroke-opacity:1"/>
          <path transform="translate(-47.130247,188.62961)" clip-path="url(#clipPath3261)" style="fill:#365677;fill-opacity:1;fill-rule:nonzero;stroke:none;stroke-width:0.64717948;stroke-linecap:round;stroke-linejoin:round;marker:none;marker-start:none;marker-mid:none;marker-end:none;stroke-miterlimit:4;stroke-dasharray:none;stroke-dashoffset:0;stroke-opacity:1;visibility:visible;display:inline;overflow:visible;filter:url(#filter3253);enable-background:accumulate" d="M 326.71139,-195.51675 C 309.91702,-196.14488 296.34363,-201.9635 294.20149,-209.45305 C 294.02717,-210.06253 293.98027,-210.9832 293.94589,-214.47087 C 293.90707,-218.41047 293.91858,-218.68915 294.09416,-218.05854 C 294.19887,-217.6825 294.48911,-216.98933 294.73914,-216.51816 C 294.98918,-216.047 295.19375,-215.47573 295.19375,-215.24868 C 295.19375,-214.65968 295.65518,-212.93447 296.03408,-212.10685 C 297.62891,-208.62328 301.82083,-205.1185 307.42544,-202.58277 C 313.27985,-199.93401 319.87994,-198.31189 327.87632,-197.55651 C 330.66082,-197.29347 338.21734,-197.33322 340.8199,-197.62459 C 347.55349,-198.37845 352.23215,-199.59175 356.61108,-201.71965 C 361.61065,-204.14915 364.56312,-207.16775 365.27699,-210.57968 C 365.49654,-211.62901 365.66704,-211.88414 365.54192,-210.9761 C 365.21332,-208.59128 364.46175,-207.08245 362.66656,-205.20344 C 358.0807,-200.40347 348.9317,-196.99562 337.51929,-195.8365 C 335.78393,-195.66024 334.15027,-195.57113 330.65919,-195.4623 C 329.91169,-195.43899 328.13519,-195.4635 326.71139,-195.51675 L 326.71139,-195.51675 z" id="path3259"/>
          <path sodipodi:type="arc" style="fill:#336894;fill-opacity:1;fill-rule:evenodd;stroke:none;stroke-width:1px;stroke-linecap:butt;stroke-linejoin:miter;stroke-opacity:1" id="path5171" sodipodi:cx="401.51016" sodipodi:cy="9.8854446" sodipodi:rx="32.358974" sodipodi:ry="13.720205" d="M 433.86914,9.8854446 A 32.358974,13.720205 0 1 1 369.15119,9.8854446 A 32.358974,13.720205 0 1 1 433.86914,9.8854446 z" transform="matrix(1.107771,0,0,0.9428563,-162.37145,-39.615882)"/>
        </g>
      </g>
    </g>
  </g>
</svg>